<svg xmlns="http://www.w3.org/2000/svg" width="112" height="112" style="shape-rendering:geometricPrecision;text-rendering:geometricPrecision;image-rendering:optimizeQuality;fill-rule:evenodd;clip-rule:evenodd"><path style="opacity:1" d="M-.5-.5h112v112H-.5V-.5Z"/><path style="opacity:1" fill="#48485f" d="M14.5 7.5c.578 2.78 1.245 5.447 2 8-.914 3.228-1.247 6.561-1 10-2.442-1.494-5.109-2.494-8-3a72.438 72.438 0 0 1 .5-12c1.465-2.415 3.632-3.415 6.5-3Z"/><path style="opacity:1" fill="#6c6c89" d="M16.5 15.5h16c-.914 3.228-1.247 6.561-1 10-2.298-2.648-4.632-2.648-7 0-1.254 5.123-4.254 6.79-9 5v-5c-.247-3.439.086-6.772 1-10Z"/><path style="opacity:1" fill="#e9a90f" d="M32.5 15.5h22c1.449 2.551 1.115 4.885-1 7a19.373 19.373 0 0 1-8 1c-2.493-.17-4.326.83-5.5 3a924.92 924.92 0 0 0-.5 43c-2.667 2.667-5.333 2.667-8 0v-44c-.247-3.439.086-6.772 1-10Z"/><path style="opacity:1" fill="#814d0d" d="M54.5 15.5a32.437 32.437 0 0 1 8 .5c.57 5.403 3.57 8.237 9 8.5-.333 5 2 7.333 7 7 .869 2.217 1.202 4.55 1 7v2c-3.659-1.75-6.326-.75-8 3a7.291 7.291 0 0 0 2 3c5.53 1.523 7.53 5.19 6 11-1.979-1.667-4.312-2.334-7-2-.333-5.667-3.333-8.667-9-9 .285-4.883-2.048-7.383-7-7.5-.28-5.115-2.947-7.615-8-7.5a28.57 28.57 0 0 0-3-8c2.75.226 5.416-.107 8-1 2.115-2.115 2.449-4.449 1-7Z"/><path style="opacity:1" fill="#30303c" d="M7.5 22.5c2.891.506 5.558 1.506 8 3v5a15.42 15.42 0 0 1-1 7 931.218 931.218 0 0 0-7 4v-19Z"/><path style="opacity:1" fill="#4a4960" d="M31.5 25.5v28c-1.66 1.748-3.66 2.248-6 1.5l-4-7c-2.212-.79-4.212-.623-6 .5-2.891-.506-5.558-1.506-8-3v-4a931.218 931.218 0 0 1 7-4 15.42 15.42 0 0 0 1-7c4.746 1.79 7.746.123 9-5 2.368-2.648 4.702-2.648 7 0Z"/><path style="opacity:1" fill="#49240c" d="M45.5 23.5a28.57 28.57 0 0 1 3 8c-.869 2.217-1.202 4.55-1 7v35c.325 7.52-.008 14.852-1 22h-8a176.726 176.726 0 0 0 1-26c-.167-14.337 0-28.67.5-43 1.174-2.17 3.007-3.17 5.5-3Z"/><path style="opacity:1" fill="#545369" d="M79.5 22.5c5.234 1.302 10.567 1.302 16 0 .617 6.098-.05 11.765-2 17h-5c-.35-6.347-3.683-9.014-10-8-5 .333-7.333-2-7-7 2.553-.755 5.22-1.422 8-2Z"/><path style="opacity:1" fill="#3b3a4c" d="M48.5 31.5c5.053-.115 7.72 2.385 8 7.5 4.952.117 7.285 2.617 7 7.5-2.128 1.13-4.462 1.296-7 .5-.24-5.74-3.24-8.574-9-8.5-.202-2.45.131-4.783 1-7Z"/><path style="opacity:1" fill="#d99c0c" d="M58.5 23.5c3.76.99 5.76 3.49 6 7.5 3.352.004 5.685 1.504 7 4.5-1.07 3.203-3.07 4.203-6 3-1.434-1.72-2.267-3.72-2.5-6-3.44-.31-5.94-1.976-7.5-5 .672-1.66 1.672-2.993 3-4Z"/><path style="opacity:1" fill="#252430" d="M78.5 31.5c6.317-1.014 9.65 1.653 10 8-3.109.236-6.109-.097-9-1 .202-2.45-.131-4.783-1-7Z"/><path style="opacity:1" fill="#49240c" d="M79.5 38.5c2.891.903 5.891 1.236 9 1h5c.283.79.783 1.456 1.5 2a676.216 676.216 0 0 1 0 52c-.717.544-1.217 1.21-1.5 2h-7a176.726 176.726 0 0 0 1-26c.166-6.342 0-12.675-.5-19a27.289 27.289 0 0 0-7-5c-.493-1.634-.66-3.3-.5-5v-2Z"/><path style="opacity:1" fill="#2f2f3d" d="M7.5 45.5c2.442 1.494 5.109 2.494 8 3-1.385 5.313.615 7.813 6 7.5 2.667 2.333 2.667 4.667 0 7a20.435 20.435 0 0 0-5.5 1.5l-1 21a18.167 18.167 0 0 1-7.5 3v-43Z"/><path style="opacity:1" fill="#292935" d="M47.5 38.5c5.76-.074 8.76 2.76 9 8.5 2.538.796 4.872.63 7-.5 5.667.333 8.667 3.333 9 9-.838.342-1.172 1.008-1 2-1.66-1.748-3.66-2.248-6-1.5a86.494 86.494 0 0 0-4 6.5 66.778 66.778 0 0 0-5.5 2c-.233 2.28-1.066 4.28-2.5 6-2.24.629-4.24 1.629-6 3v-35Z"/><path style="opacity:1" fill="#2d2c39" d="M14.5 7.5c28.669-.167 57.335 0 86 .5a4.452 4.452 0 0 1 2 1.5 1391.408 1391.408 0 0 1 .5 91c-1.258 2.555-3.091 3.222-5.5 2-1.083-2.638-2.416-4.971-4-7 .283-.79.783-1.456 1.5-2a676.216 676.216 0 0 0 0-52c-.717-.544-1.217-1.21-1.5-2 1.95-5.235 2.617-10.902 2-17 1.1-6.394-1.567-8.727-8-7-6.433-1.727-9.1.606-8 7-2.78.578-5.447 1.245-8 2-5.43-.263-8.43-3.097-9-8.5a32.437 32.437 0 0 0-8-.5h-38a100.131 100.131 0 0 1-2-8Z"/><path style="opacity:1" fill="#6b6b88" d="M95.5 22.5c-5.433 1.302-10.766 1.302-16 0-1.1-6.394 1.567-8.727 8-7 6.433-1.727 9.1.606 8 7Z"/><path style="opacity:1" fill="#5c5c72" d="M31.5 53.5v20c-5.789-2.92-8.455-.92-8 6-.604 6.408 2.063 8.741 8 7-.236 3.109.098 6.109 1 9h-3c-7.42.297-14.754-.036-22-1v-6a18.167 18.167 0 0 0 7.5-3l1-21a20.435 20.435 0 0 1 5.5-1.5c2.667-2.333 2.667-4.667 0-7-5.385.313-7.385-2.187-6-7.5 1.788-1.123 3.788-1.29 6-.5l4 7c2.34.748 4.34.248 6-1.5Z"/><path style="opacity:1" fill="#dc9e0c" d="M79.5 40.5c-.16 1.7.007 3.366.5 5a27.289 27.289 0 0 1 7 5c.5 6.325.666 12.658.5 19-2.667 2.667-5.333 2.667-8 0v-12c1.53-5.81-.47-9.477-6-11a7.291 7.291 0 0 1-2-3c1.674-3.75 4.341-4.75 8-3Z"/><path style="opacity:1" fill="#43435a" d="M72.5 55.5c2.688-.334 5.021.333 7 2v20c-2.667 2.667-5.333 2.667-8 0 .201-4.137-1.799-6.47-6-7a7.291 7.291 0 0 1-2-3c1.694-2.69 4.027-4.69 7-6a6.845 6.845 0 0 0 1-4c-.172-.992.162-1.658 1-2Z"/><path style="opacity:1" fill="#a9700d" d="M31.5 69.5c2.667 2.667 5.333 2.667 8 0 .303 8.751-.03 17.418-1 26h-6c-.902-2.891-1.236-5.891-1-9v-17ZM79.5 69.5c2.667 2.667 5.333 2.667 8 0 .303 8.751-.03 17.418-1 26h-6a86.758 86.758 0 0 1-1-18v-8Z"/><path style="opacity:1" fill="#252531" d="M71.5 80.5v6c-2.667 1.333-5.333 1.333-8 0 .333-5-2-7.333-7-7-1.75-3.659-.75-6.326 3-8 2.69 1.694 4.69 4.027 6 7 2.03.672 4.03 1.338 6 2Z"/><path style="opacity:1" fill="#5e5e75" d="M71.5 77.5c2.667 2.667 5.333 2.667 8 0a86.758 86.758 0 0 0 1 18c-.838.342-1.172 1.008-1 2a931.616 931.616 0 0 0-7-4 15.42 15.42 0 0 1-1-7v-9Z"/><path style="opacity:1" fill="#333341" d="M31.5 73.5v13c-5.937 1.741-8.604-.592-8-7-.455-6.92 2.211-8.92 8-6Z"/><path style="opacity:1" fill="#4d4d67" d="M56.5 79.5c5-.333 7.333 2 7 7a32.437 32.437 0 0 1-.5 8c-2.064 1.091-4.23 1.258-6.5.5-1.324-5.266-1.324-10.433 0-15.5Z"/><path style="opacity:1" fill="#323241" d="M71.5 57.5a6.845 6.845 0 0 1-1 4c-2.973 1.31-5.306 3.31-7 6a7.291 7.291 0 0 0 2 3c4.201.53 6.201 2.863 6 7v3c-1.97-.662-3.97-1.328-6-2-1.31-2.973-3.31-5.306-6-7-3.75 1.674-4.75 4.341-3 8-1.324 5.067-1.324 10.234 0 15.5 2.27.758 4.436.591 6.5-.5.497-2.646.664-5.313.5-8 2.667 1.333 5.333 1.333 8 0a15.42 15.42 0 0 0 1 7 931.616 931.616 0 0 1 7 4c.17 2.493-.83 4.326-3 5.5-8.667.667-17.333.667-26 0-2.288-1.95-3.62-4.45-4-7.5.992-7.148 1.325-14.48 1-22 1.76-1.371 3.76-2.371 6-3 1.434-1.72 2.267-3.72 2.5-6a66.778 66.778 0 0 1 5.5-2 86.494 86.494 0 0 1 4-6.5c2.34-.748 4.34-.248 6 1.5Z"/><path style="opacity:1" fill="#2e2e3b" d="M7.5 94.5c7.246.964 14.58 1.297 22 1 2.648 2.298 2.648 4.632 0 7a50.512 50.512 0 0 1-20 0c-1.729-2.351-2.396-5.018-2-8Z"/></svg>