<svg width="108" height="108" xmlns="http://www.w3.org/2000/svg" xml:space="preserve"><path d="M28 28h52.483v52.83H28V28z"/><path d="M35.029 31.774c.27 1.31.583 2.569.937 3.773a13.69 13.69 0 0 0-.468 4.717 10.583 10.583 0 0 0-3.75-1.415 33.944 34.168 0 0 1 .235-5.66c.687-1.14 1.702-1.611 3.046-1.415z" fill="#48485f"/><path d="M35.966 35.547h7.498a13.69 13.69 0 0 0-.469 4.717c-1.077-1.25-2.17-1.25-3.28 0-.588 2.416-1.993 3.203-4.217 2.358v-2.358a13.69 13.69 0 0 1 .468-4.717z" fill="#6c6c89"/><path d="M43.464 35.547h10.309c.679 1.203.522 2.304-.469 3.302a9.078 9.138 0 0 1-3.748.472c-1.169-.08-2.028.391-2.578 1.415a433.418 436.276 0 0 0-.234 20.282c-1.25 1.258-2.499 1.258-3.749 0V40.264a13.69 13.69 0 0 1 .469-4.717z" fill="#e9a90f"/><path d="M53.773 35.547a15.2 15.3 0 0 1 3.749.236c.267 2.548 1.673 3.885 4.217 4.01-.156 2.358.937 3.458 3.28 3.301a7.331 7.331 0 0 1 .469 3.302v.943c-1.715-.825-2.964-.353-3.749 1.415a3.417 3.44 0 0 0 .937 1.415c2.592.719 3.529 2.449 2.812 5.189-.927-.786-2.02-1.1-3.28-.943-.156-2.673-1.562-4.088-4.218-4.246.134-2.303-.96-3.482-3.28-3.537-.131-2.413-1.38-3.592-3.749-3.538a13.388 13.476 0 0 0-1.405-3.773 9.021 9.021 0 0 0 3.748-.472c.991-.998 1.148-2.099.469-3.302z" fill="#814d0d"/><path d="M31.749 38.849c1.355.239 2.604.71 3.749 1.415v2.358a7.226 7.273 0 0 1-.469 3.302 436.369 439.246 0 0 0-3.28 1.887v-8.962z" fill="#30303c"/><path d="M42.995 40.264v13.207c-.778.825-1.715 1.06-2.811.708l-1.875-3.302c-1.036-.373-1.974-.294-2.811.236a10.583 10.583 0 0 1-3.75-1.415V47.81a436.369 439.246 0 0 1 3.281-1.887 7.226 7.273 0 0 0 .469-3.302c2.224.845 3.63.058 4.217-2.358 1.11-1.25 2.203-1.25 3.28 0z" fill="#4a4960"/><path d="M49.556 39.32a13.388 13.476 0 0 1 1.405 3.774 7.331 7.331 0 0 0-.468 3.302v16.51a57.712 57.712 0 0 1-.469 10.376h-3.749a82.814 83.36 0 0 0 .469-12.264c-.078-6.762 0-13.523.234-20.282.55-1.024 1.41-1.496 2.578-1.415z" fill="#49240c"/><path d="M65.488 38.849c2.453.614 4.952.614 7.498 0 .289 2.876-.024 5.55-.938 8.019h-2.343c-.164-2.994-1.725-4.252-4.686-3.774-2.343.157-3.436-.943-3.28-3.302a46.594 46.594 0 0 1 3.749-.943z" fill="#545369"/><path d="M50.961 43.094c2.368-.054 3.618 1.125 3.75 3.538 2.32.055 3.413 1.234 3.28 3.537-.998.533-2.091.612-3.28.236-.113-2.707-1.519-4.044-4.218-4.01a7.331 7.331 0 0 1 .468-3.3z" fill="#3b3a4c"/><path d="M55.647 39.32c1.762.468 2.7 1.647 2.812 3.538 1.57.002 2.664.71 3.28 2.123-.501 1.51-1.438 1.982-2.811 1.415a5.152 5.152 0 0 1-1.172-2.83c-1.612-.146-2.783-.932-3.514-2.359.315-.783.783-1.411 1.405-1.886z" fill="#d99c0c"/><path d="M65.02 43.094c2.96-.478 4.521.78 4.685 3.774a11.11 11.11 0 0 1-4.217-.472 7.331 7.331 0 0 0-.469-3.302z" fill="#252430"/><path d="M65.488 46.396a11.11 11.11 0 0 0 4.217.472h2.343c.133.372.367.686.703.943a316.875 318.964 0 0 1 0 24.528c-.336.256-.57.57-.703.943h-3.28a82.814 83.36 0 0 0 .469-12.264c.078-2.991 0-5.978-.234-8.962a12.788 12.872 0 0 0-3.28-2.358 6.145 6.145 0 0 1-.235-2.359v-.943z" fill="#49240c"/><path d="M31.749 49.698a10.583 10.583 0 0 0 3.749 1.415c-.65 2.506.288 3.685 2.811 3.537 1.25 1.101 1.25 2.202 0 3.302a9.576 9.639 0 0 0-2.577.708l-.469 9.905a8.513 8.57 0 0 1-3.514 1.415V49.698z" fill="#2f2f3d"/><path d="M50.493 46.396c2.699-.035 4.105 1.302 4.217 4.01 1.19.375 2.283.296 3.28-.237 2.656.158 4.062 1.573 4.218 4.246-.393.161-.55.475-.469.943-.778-.824-1.715-1.06-2.811-.708a40.531 40.798 0 0 0-1.875 3.066 31.292 31.499 0 0 0-2.577.944 5.152 5.152 0 0 1-1.172 2.83 8.059 8.059 0 0 0-2.811 1.415v-16.51z" fill="#292935"/><path d="M35.029 31.774c13.434-.08 26.867 0 40.3.235a2.086 2.1 0 0 1 .937.708A652.014 656.314 0 0 1 76.5 75.64c-.59 1.205-1.448 1.52-2.577.943-.508-1.244-1.132-2.345-1.875-3.302.133-.372.367-.687.703-.943a316.875 318.964 0 0 0 0-24.528 2.028 2.028 0 0 1-.703-.943c.914-2.47 1.227-5.143.938-8.02.515-3.015-.735-4.116-3.75-3.3-3.014-.816-4.263.285-3.748 3.3a46.594 46.594 0 0 0-3.749.944c-2.544-.124-3.95-1.46-4.217-4.01a15.2 15.3 0 0 0-3.749-.235H35.966a46.921 47.23 0 0 1-.937-3.773z" fill="#2d2c39"/><path d="M72.986 38.849c-2.546.614-5.045.614-7.498 0-.515-3.016.734-4.117 3.749-3.302 3.014-.815 4.264.286 3.749 3.302z" fill="#6b6b88"/><path d="M42.995 53.471v9.434c-2.713-1.377-3.962-.434-3.749 2.83-.283 3.023.967 4.123 3.75 3.302-.111 1.467.045 2.882.468 4.245h-1.406a59.486 59.486 0 0 1-10.31-.471v-2.83a8.513 8.57 0 0 0 3.515-1.416l.469-9.905a9.576 9.639 0 0 1 2.577-.708c1.25-1.1 1.25-2.201 0-3.302-2.523.148-3.46-1.031-2.811-3.537.837-.53 1.775-.609 2.811-.236l1.875 3.302c1.096.353 2.033.117 2.811-.708z" fill="#5c5c72"/><path d="M65.488 47.34a6.145 6.145 0 0 0 .234 2.358 12.788 12.872 0 0 1 3.28 2.358c.235 2.984.313 5.97.235 8.962-1.25 1.258-2.5 1.258-3.749 0v-5.66c.717-2.74-.22-4.47-2.812-5.189a3.417 3.44 0 0 1-.937-1.415c.785-1.768 2.034-2.24 3.749-1.415z" fill="#dc9e0c"/><path d="M62.208 54.415c1.26-.158 2.353.157 3.28.943v9.434c-1.25 1.258-2.499 1.258-3.749 0 .094-1.952-.843-3.052-2.811-3.302a3.417 3.44 0 0 1-.938-1.415c.794-1.269 1.887-2.212 3.28-2.83a3.208 3.229 0 0 0 .47-1.887c-.081-.468.075-.782.468-.943z" fill="#43435a"/><path d="M42.995 61.018c1.25 1.258 2.5 1.258 3.749 0a83.912 83.912 0 0 1-.469 12.264h-2.811a11.333 11.333 0 0 1-.469-4.245v-8.019zm22.493 0c1.25 1.258 2.5 1.258 3.749 0a83.912 83.912 0 0 1-.469 12.264h-2.811a40.655 40.923 0 0 1-.469-8.49v-3.774z" fill="#a9700d"/><path d="M61.74 66.207v2.83c-1.25.629-2.5.629-3.75 0 .156-2.358-.937-3.459-3.28-3.302-.82-1.726-.351-2.984 1.406-3.773 1.26.799 2.198 1.9 2.812 3.302.95.317 1.888.63 2.811.943z" fill="#252531"/><path d="M61.74 64.792c1.249 1.258 2.498 1.258 3.748 0a40.655 40.923 0 0 0 .469 8.49c-.393.162-.55.476-.469.944a436.555 439.434 0 0 0-3.28-1.887 7.226 7.273 0 0 1-.469-3.302v-4.245z" fill="#5e5e75"/><path d="M42.995 62.905v6.132c-2.782.821-4.032-.28-3.749-3.302-.213-3.264 1.036-4.207 3.75-2.83z" fill="#333341"/><path d="M54.71 65.735c2.343-.157 3.436.944 3.28 3.302a15.2 15.3 0 0 1-.234 3.774c-.967.514-1.982.593-3.046.235-.62-2.484-.62-4.92 0-7.31z" fill="#4d4d67"/><path d="M61.74 55.358a3.208 3.229 0 0 1-.47 1.887c-1.393.618-2.486 1.561-3.28 2.83a3.417 3.44 0 0 0 .938 1.415c1.968.25 2.905 1.35 2.811 3.302v1.415c-.923-.312-1.86-.626-2.811-.943-.614-1.403-1.551-2.503-2.812-3.302-1.757.79-2.226 2.047-1.406 3.773-.62 2.39-.62 4.827 0 7.311 1.064.358 2.079.28 3.046-.235.233-1.249.311-2.507.234-3.774 1.25.629 2.5.629 3.75 0a7.226 7.273 0 0 0 .468 3.302 436.555 439.434 0 0 1 3.28 1.887c.08 1.176-.389 2.04-1.406 2.594a78.753 78.753 0 0 1-12.183 0c-1.073-.92-1.697-2.1-1.875-3.538.465-3.371.621-6.83.469-10.377a8.059 8.059 0 0 1 2.811-1.415 5.152 5.152 0 0 0 1.172-2.83 31.292 31.499 0 0 1 2.577-.944 40.531 40.798 0 0 1 1.875-3.066c1.096-.352 2.033-.116 2.811.708z" fill="#323241"/><path d="M31.749 72.81c3.395.455 6.832.612 10.309.472 1.24 1.084 1.24 2.185 0 3.302a23.67 23.826 0 0 1-9.372 0c-.81-1.109-1.123-2.367-.937-3.773z" fill="#2e2e3b"/></svg>